<?xml version="1.0" standalone="no"?>
<!DOCTYPE svg PUBLIC "-//W3C//DTD SVG 20010904//EN"
 "http://www.w3.org/TR/2001/REC-SVG-20010904/DTD/svg10.dtd">
<svg version="1.0" xmlns="http://www.w3.org/2000/svg"
 width="700.000000pt" height="700.000000pt" viewBox="0 0 700.000000 700.000000"
 preserveAspectRatio="xMidYMid meet">
<metadata>
Created by potrace 1.11, written by Peter Selinger 2001-2013
</metadata>
<g transform="translate(0.000000,700.000000) scale(0.100000,-0.100000)"
fill="#000000" stroke="none">
<path d="M4431 6984 c-287 -39 -420 -81 -881 -274 -317 -134 -472 -184 -734
-235 -94 -19 -207 -46 -251 -60 -177 -58 -385 -179 -565 -328 -179 -149 -486
-428 -583 -530 -326 -343 -479 -704 -647 -1521 -56 -276 -92 -359 -234 -546
-44 -58 -116 -153 -161 -212 -139 -183 -214 -336 -257 -520 -19 -81 -22 -121
-22 -308 0 -187 4 -234 27 -360 100 -559 382 -1086 807 -1510 267 -267 552
-458 815 -546 94 -31 280 -44 380 -25 183 34 400 136 810 381 592 353 801 440
1237 510 216 34 333 41 863 50 552 9 638 16 864 66 468 105 788 335 928 668
59 138 74 221 80 416 4 147 2 194 -15 295 -63 364 -227 719 -445 963 -40 45
-90 110 -111 145 -45 77 -91 216 -112 345 -25 144 -22 452 7 817 31 402 32
757 1 926 -12 64 -38 165 -58 225 -240 709 -640 1091 -1228 1173 -106 15 -389
12 -515 -5z m544 -140 c320 -54 594 -230 798 -515 122 -170 270 -497 312 -687
42 -191 47 -495 15 -907 -67 -860 -17 -1169 236 -1455 100 -114 163 -209 239
-365 222 -451 263 -912 108 -1219 -119 -239 -324 -399 -638 -499 -281 -90
-549 -116 -1175 -117 -336 0 -460 -7 -665 -35 -476 -67 -724 -167 -1375 -553
-434 -258 -589 -328 -775 -353 -106 -14 -185 -3 -309 42 -294 107 -675 403
-938 729 -293 364 -489 793 -563 1230 -26 155 -31 397 -11 519 40 238 98 352
336 661 216 280 252 355 311 648 110 546 221 896 361 1145 113 201 260 364
587 656 264 236 418 350 587 434 133 67 213 92 432 137 289 58 404 97 903 303
362 149 535 193 869 221 76 6 260 -4 355 -20z"/>
<path d="M3225 4759 c-96 -14 -233 -57 -333 -104 -364 -173 -623 -514 -687
-905 -85 -529 181 -1060 650 -1293 177 -88 346 -127 549 -127 335 0 632 123
867 359 236 237 359 531 359 861 0 340 -132 646 -384 888 -177 170 -420 288
-660 321 -89 13 -274 12 -361 0z"/>
</g>
</svg>
